<svg width="143" height="60" viewBox="0 0 143 60" fill="none" xmlns="http://www.w3.org/2000/svg">
<circle cx="30" cy="30" r="30" fill="white"/>
<path d="M21.475 39.4C20.075 39.4 18.775 39.1833 17.575 38.75C16.3917 38.3 15.3583 37.6667 14.475 36.85C13.6083 36.0333 12.9333 35.0667 12.45 33.95C11.9667 32.8333 11.725 31.6 11.725 30.25C11.725 28.9 11.9667 27.6667 12.45 26.55C12.9333 25.4333 13.6083 24.4667 14.475 23.65C15.3583 22.8333 16.3917 22.2083 17.575 21.775C18.775 21.325 20.075 21.1 21.475 21.1C23.1917 21.1 24.7083 21.4 26.025 22C27.3583 22.6 28.4583 23.4667 29.325 24.6L25.6 27.925C25.0833 27.275 24.5083 26.775 23.875 26.425C23.2583 26.0583 22.5583 25.875 21.775 25.875C21.1583 25.875 20.6 25.975 20.1 26.175C19.6 26.375 19.1667 26.6667 18.8 27.05C18.45 27.4333 18.175 27.9 17.975 28.45C17.775 28.9833 17.675 29.5833 17.675 30.25C17.675 30.9167 17.775 31.525 17.975 32.075C18.175 32.6083 18.45 33.0667 18.8 33.45C19.1667 33.8333 19.6 34.125 20.1 34.325C20.6 34.525 21.1583 34.625 21.775 34.625C22.5583 34.625 23.2583 34.45 23.875 34.1C24.5083 33.7333 25.0833 33.225 25.6 32.575L29.325 35.9C28.4583 37.0167 27.3583 37.8833 26.025 38.5C24.7083 39.1 23.1917 39.4 21.475 39.4ZM39.7123 39.4C38.3123 39.4 37.0123 39.1833 35.8123 38.75C34.629 38.3 33.5956 37.6667 32.7123 36.85C31.8456 36.0333 31.1706 35.0667 30.6873 33.95C30.204 32.8333 29.9623 31.6 29.9623 30.25C29.9623 28.9 30.204 27.6667 30.6873 26.55C31.1706 25.4333 31.8456 24.4667 32.7123 23.65C33.5956 22.8333 34.629 22.2083 35.8123 21.775C37.0123 21.325 38.3123 21.1 39.7123 21.1C41.429 21.1 42.9456 21.4 44.2623 22C45.5956 22.6 46.6956 23.4667 47.5623 24.6L43.8373 27.925C43.3206 27.275 42.7456 26.775 42.1123 26.425C41.4956 26.0583 40.7956 25.875 40.0123 25.875C39.3956 25.875 38.8373 25.975 38.3373 26.175C37.8373 26.375 37.404 26.6667 37.0373 27.05C36.6873 27.4333 36.4123 27.9 36.2123 28.45C36.0123 28.9833 35.9123 29.5833 35.9123 30.25C35.9123 30.9167 36.0123 31.525 36.2123 32.075C36.4123 32.6083 36.6873 33.0667 37.0373 33.45C37.404 33.8333 37.8373 34.125 38.3373 34.325C38.8373 34.525 39.3956 34.625 40.0123 34.625C40.7956 34.625 41.4956 34.45 42.1123 34.1C42.7456 33.7333 43.3206 33.225 43.8373 32.575L47.5623 35.9C46.6956 37.0167 45.5956 37.8833 44.2623 38.5C42.9456 39.1 41.429 39.4 39.7123 39.4Z" fill="#3C3123"/>
<path d="M91.524 26.144C90.564 26.144 89.676 25.988 88.86 25.676C88.056 25.352 87.354 24.902 86.754 24.326C86.166 23.738 85.704 23.054 85.368 22.274C85.032 21.494 84.864 20.636 84.864 19.7C84.864 18.764 85.032 17.906 85.368 17.126C85.704 16.346 86.172 15.668 86.772 15.092C87.372 14.504 88.074 14.054 88.878 13.742C89.694 13.418 90.582 13.256 91.542 13.256C92.514 13.256 93.408 13.424 94.224 13.76C95.052 14.084 95.754 14.57 96.33 15.218L95.16 16.352C94.68 15.848 94.14 15.476 93.54 15.236C92.94 14.984 92.298 14.858 91.614 14.858C90.906 14.858 90.246 14.978 89.634 15.218C89.034 15.458 88.512 15.794 88.068 16.226C87.624 16.658 87.276 17.174 87.024 17.774C86.784 18.362 86.664 19.004 86.664 19.7C86.664 20.396 86.784 21.044 87.024 21.644C87.276 22.232 87.624 22.742 88.068 23.174C88.512 23.606 89.034 23.942 89.634 24.182C90.246 24.422 90.906 24.542 91.614 24.542C92.298 24.542 92.94 24.422 93.54 24.182C94.14 23.93 94.68 23.546 95.16 23.03L96.33 24.164C95.754 24.812 95.052 25.304 94.224 25.64C93.408 25.976 92.508 26.144 91.524 26.144ZM102.328 26.108C101.368 26.108 100.516 25.898 99.7715 25.478C99.0275 25.058 98.4395 24.482 98.0075 23.75C97.5755 23.006 97.3595 22.166 97.3595 21.23C97.3595 20.282 97.5755 19.442 98.0075 18.71C98.4395 17.978 99.0275 17.408 99.7715 17C100.516 16.58 101.368 16.37 102.328 16.37C103.276 16.37 104.122 16.58 104.866 17C105.622 17.408 106.21 17.978 106.63 18.71C107.062 19.43 107.278 20.27 107.278 21.23C107.278 22.178 107.062 23.018 106.63 23.75C106.21 24.482 105.622 25.058 104.866 25.478C104.122 25.898 103.276 26.108 102.328 26.108ZM102.328 24.596C102.94 24.596 103.486 24.458 103.966 24.182C104.458 23.906 104.842 23.516 105.118 23.012C105.394 22.496 105.532 21.902 105.532 21.23C105.532 20.546 105.394 19.958 105.118 19.466C104.842 18.962 104.458 18.572 103.966 18.296C103.486 18.02 102.94 17.882 102.328 17.882C101.716 17.882 101.17 18.02 100.69 18.296C100.21 18.572 99.8255 18.962 99.5375 19.466C99.2495 19.958 99.1055 20.546 99.1055 21.23C99.1055 21.902 99.2495 22.496 99.5375 23.012C99.8255 23.516 100.21 23.906 100.69 24.182C101.17 24.458 101.716 24.596 102.328 24.596ZM109.919 26V15.614C109.919 14.678 110.189 13.934 110.729 13.382C111.281 12.818 112.061 12.536 113.069 12.536C113.441 12.536 113.795 12.584 114.131 12.68C114.479 12.764 114.773 12.902 115.013 13.094L114.491 14.408C114.311 14.264 114.107 14.156 113.879 14.084C113.651 14 113.411 13.958 113.159 13.958C112.655 13.958 112.271 14.102 112.007 14.39C111.743 14.666 111.611 15.08 111.611 15.632V16.91L111.647 17.702V26H109.919ZM108.299 17.882V16.46H114.383V17.882H108.299ZM116.283 26V15.614C116.283 14.678 116.553 13.934 117.093 13.382C117.645 12.818 118.425 12.536 119.433 12.536C119.805 12.536 120.159 12.584 120.495 12.68C120.843 12.764 121.137 12.902 121.377 13.094L120.855 14.408C120.675 14.264 120.471 14.156 120.243 14.084C120.015 14 119.775 13.958 119.523 13.958C119.019 13.958 118.635 14.102 118.371 14.39C118.107 14.666 117.975 15.08 117.975 15.632V16.91L118.011 17.702V26H116.283ZM114.663 17.882V16.46H120.747V17.882H114.663ZM126.484 26.108C125.464 26.108 124.564 25.898 123.784 25.478C123.016 25.058 122.416 24.482 121.984 23.75C121.564 23.018 121.354 22.178 121.354 21.23C121.354 20.282 121.558 19.442 121.966 18.71C122.386 17.978 122.956 17.408 123.676 17C124.408 16.58 125.23 16.37 126.142 16.37C127.066 16.37 127.882 16.574 128.59 16.982C129.298 17.39 129.85 17.966 130.246 18.71C130.654 19.442 130.858 20.3 130.858 21.284C130.858 21.356 130.852 21.44 130.84 21.536C130.84 21.632 130.834 21.722 130.822 21.806H122.704V20.564H129.922L129.22 20.996C129.232 20.384 129.106 19.838 128.842 19.358C128.578 18.878 128.212 18.506 127.744 18.242C127.288 17.966 126.754 17.828 126.142 17.828C125.542 17.828 125.008 17.966 124.54 18.242C124.072 18.506 123.706 18.884 123.442 19.376C123.178 19.856 123.046 20.408 123.046 21.032V21.32C123.046 21.956 123.19 22.526 123.478 23.03C123.778 23.522 124.192 23.906 124.72 24.182C125.248 24.458 125.854 24.596 126.538 24.596C127.102 24.596 127.612 24.5 128.068 24.308C128.536 24.116 128.944 23.828 129.292 23.444L130.246 24.56C129.814 25.064 129.274 25.448 128.626 25.712C127.99 25.976 127.276 26.108 126.484 26.108ZM137.505 26.108C136.485 26.108 135.585 25.898 134.805 25.478C134.037 25.058 133.437 24.482 133.005 23.75C132.585 23.018 132.375 22.178 132.375 21.23C132.375 20.282 132.579 19.442 132.987 18.71C133.407 17.978 133.977 17.408 134.697 17C135.429 16.58 136.251 16.37 137.163 16.37C138.087 16.37 138.903 16.574 139.611 16.982C140.319 17.39 140.871 17.966 141.267 18.71C141.675 19.442 141.879 20.3 141.879 21.284C141.879 21.356 141.873 21.44 141.861 21.536C141.861 21.632 141.855 21.722 141.843 21.806H133.725V20.564H140.943L140.241 20.996C140.253 20.384 140.127 19.838 139.863 19.358C139.599 18.878 139.233 18.506 138.765 18.242C138.309 17.966 137.775 17.828 137.163 17.828C136.563 17.828 136.029 17.966 135.561 18.242C135.093 18.506 134.727 18.884 134.463 19.376C134.199 19.856 134.067 20.408 134.067 21.032V21.32C134.067 21.956 134.211 22.526 134.499 23.03C134.799 23.522 135.213 23.906 135.741 24.182C136.269 24.458 136.875 24.596 137.559 24.596C138.123 24.596 138.633 24.5 139.089 24.308C139.557 24.116 139.965 23.828 140.313 23.444L141.267 24.56C140.835 25.064 140.295 25.448 139.647 25.712C139.011 25.976 138.297 26.108 137.505 26.108ZM91.524 48.144C90.564 48.144 89.676 47.988 88.86 47.676C88.056 47.352 87.354 46.902 86.754 46.326C86.166 45.738 85.704 45.054 85.368 44.274C85.032 43.494 84.864 42.636 84.864 41.7C84.864 40.764 85.032 39.906 85.368 39.126C85.704 38.346 86.172 37.668 86.772 37.092C87.372 36.504 88.074 36.054 88.878 35.742C89.694 35.418 90.582 35.256 91.542 35.256C92.514 35.256 93.408 35.424 94.224 35.76C95.052 36.084 95.754 36.57 96.33 37.218L95.16 38.352C94.68 37.848 94.14 37.476 93.54 37.236C92.94 36.984 92.298 36.858 91.614 36.858C90.906 36.858 90.246 36.978 89.634 37.218C89.034 37.458 88.512 37.794 88.068 38.226C87.624 38.658 87.276 39.174 87.024 39.774C86.784 40.362 86.664 41.004 86.664 41.7C86.664 42.396 86.784 43.044 87.024 43.644C87.276 44.232 87.624 44.742 88.068 45.174C88.512 45.606 89.034 45.942 89.634 46.182C90.246 46.422 90.906 46.542 91.614 46.542C92.298 46.542 92.94 46.422 93.54 46.182C94.14 45.93 94.68 45.546 95.16 45.03L96.33 46.164C95.754 46.812 95.052 47.304 94.224 47.64C93.408 47.976 92.508 48.144 91.524 48.144ZM102.328 48.108C101.368 48.108 100.516 47.898 99.7715 47.478C99.0275 47.058 98.4395 46.482 98.0075 45.75C97.5755 45.006 97.3595 44.166 97.3595 43.23C97.3595 42.282 97.5755 41.442 98.0075 40.71C98.4395 39.978 99.0275 39.408 99.7715 39C100.516 38.58 101.368 38.37 102.328 38.37C103.276 38.37 104.122 38.58 104.866 39C105.622 39.408 106.21 39.978 106.63 40.71C107.062 41.43 107.278 42.27 107.278 43.23C107.278 44.178 107.062 45.018 106.63 45.75C106.21 46.482 105.622 47.058 104.866 47.478C104.122 47.898 103.276 48.108 102.328 48.108ZM102.328 46.596C102.94 46.596 103.486 46.458 103.966 46.182C104.458 45.906 104.842 45.516 105.118 45.012C105.394 44.496 105.532 43.902 105.532 43.23C105.532 42.546 105.394 41.958 105.118 41.466C104.842 40.962 104.458 40.572 103.966 40.296C103.486 40.02 102.94 39.882 102.328 39.882C101.716 39.882 101.17 40.02 100.69 40.296C100.21 40.572 99.8255 40.962 99.5375 41.466C99.2495 41.958 99.1055 42.546 99.1055 43.23C99.1055 43.902 99.2495 44.496 99.5375 45.012C99.8255 45.516 100.21 45.906 100.69 46.182C101.17 46.458 101.716 46.596 102.328 46.596ZM109.667 48V38.46H111.323V41.052L111.161 40.404C111.425 39.744 111.869 39.24 112.493 38.892C113.117 38.544 113.885 38.37 114.797 38.37V40.044C114.725 40.032 114.653 40.026 114.581 40.026C114.521 40.026 114.461 40.026 114.401 40.026C113.477 40.026 112.745 40.302 112.205 40.854C111.665 41.406 111.395 42.204 111.395 43.248V48H109.667ZM122.021 38.37C122.801 38.37 123.485 38.52 124.073 38.82C124.673 39.12 125.141 39.576 125.477 40.188C125.813 40.8 125.981 41.574 125.981 42.51V48H124.253V42.708C124.253 41.784 124.025 41.088 123.569 40.62C123.125 40.152 122.495 39.918 121.679 39.918C121.067 39.918 120.533 40.038 120.077 40.278C119.621 40.518 119.267 40.872 119.015 41.34C118.775 41.808 118.655 42.39 118.655 43.086V48H116.927V38.46H118.583V41.034L118.313 40.35C118.625 39.726 119.105 39.24 119.753 38.892C120.401 38.544 121.157 38.37 122.021 38.37ZM133.427 48.108C132.407 48.108 131.507 47.898 130.727 47.478C129.959 47.058 129.359 46.482 128.927 45.75C128.507 45.018 128.297 44.178 128.297 43.23C128.297 42.282 128.501 41.442 128.909 40.71C129.329 39.978 129.899 39.408 130.619 39C131.351 38.58 132.173 38.37 133.085 38.37C134.009 38.37 134.825 38.574 135.533 38.982C136.241 39.39 136.793 39.966 137.189 40.71C137.597 41.442 137.801 42.3 137.801 43.284C137.801 43.356 137.795 43.44 137.783 43.536C137.783 43.632 137.777 43.722 137.765 43.806H129.647V42.564H136.865L136.163 42.996C136.175 42.384 136.049 41.838 135.785 41.358C135.521 40.878 135.155 40.506 134.687 40.242C134.231 39.966 133.697 39.828 133.085 39.828C132.485 39.828 131.951 39.966 131.483 40.242C131.015 40.506 130.649 40.884 130.385 41.376C130.121 41.856 129.989 42.408 129.989 43.032V43.32C129.989 43.956 130.133 44.526 130.421 45.03C130.721 45.522 131.135 45.906 131.663 46.182C132.191 46.458 132.797 46.596 133.481 46.596C134.045 46.596 134.555 46.5 135.011 46.308C135.479 46.116 135.887 45.828 136.235 45.444L137.189 46.56C136.757 47.064 136.217 47.448 135.569 47.712C134.933 47.976 134.219 48.108 133.427 48.108Z" fill="white"/>
</svg>
